<svg width="49" height="12" viewBox="0 0 49 12" fill="none" xmlns="http://www.w3.org/2000/svg">
<path d="M5.0206 10.5476L0.382102 5.90909L5.0206 1.2706L5.91548 2.15554L2.80824 5.26278H10.6136V6.5554H2.80824L5.91548 9.65767L5.0206 10.5476ZM17.1811 11V0.818182H20.9098C21.6323 0.818182 22.2306 0.9375 22.7045 1.17614C23.1785 1.41146 23.5331 1.7313 23.7685 2.13565C24.0038 2.53669 24.1214 2.98911 24.1214 3.4929C24.1214 3.91714 24.0436 4.27509 23.8878 4.56676C23.732 4.85511 23.5232 5.08712 23.2614 5.26278C23.0028 5.43513 22.7178 5.56108 22.4062 5.64062V5.74006C22.7443 5.75663 23.0741 5.866 23.3956 6.06818C23.7204 6.26705 23.9889 6.55043 24.201 6.91832C24.4131 7.28622 24.5192 7.73366 24.5192 8.26065C24.5192 8.78101 24.3965 9.24834 24.1513 9.66264C23.9093 10.0736 23.5348 10.4001 23.0277 10.642C22.5206 10.8807 21.8726 11 21.0838 11H17.1811ZM18.7173 9.68253H20.9347C21.6705 9.68253 22.1974 9.54001 22.5156 9.25497C22.8338 8.96993 22.9929 8.61364 22.9929 8.18608C22.9929 7.86458 22.9117 7.5696 22.7493 7.30114C22.5869 7.03267 22.3549 6.81889 22.0533 6.6598C21.755 6.50071 21.4003 6.42116 20.9893 6.42116H18.7173V9.68253ZM18.7173 5.22301H20.7756C21.1203 5.22301 21.4302 5.15672 21.7053 5.02415C21.9837 4.89157 22.2041 4.70597 22.3665 4.46733C22.5322 4.22538 22.6151 3.94034 22.6151 3.61222C22.6151 3.19129 22.4676 2.8383 22.1726 2.55327C21.8776 2.26823 21.4252 2.12571 20.8153 2.12571H18.7173V5.22301ZM28.4442 11.169C27.9603 11.169 27.5228 11.0795 27.1317 10.9006C26.7406 10.7183 26.4308 10.4548 26.2021 10.1101C25.9767 9.76539 25.864 9.3428 25.864 8.84233C25.864 8.41146 25.9469 8.05682 26.1126 7.77841C26.2783 7.5 26.502 7.27959 26.7837 7.11719C27.0655 6.95478 27.3803 6.83215 27.7283 6.74929C28.0763 6.66643 28.431 6.60346 28.7923 6.56037C29.2496 6.50734 29.6209 6.46425 29.9059 6.43111C30.1909 6.39465 30.3981 6.33665 30.5273 6.2571C30.6566 6.17756 30.7212 6.0483 30.7212 5.86932V5.83452C30.7212 5.40033 30.5986 5.06392 30.3533 4.82528C30.1114 4.58665 29.7501 4.46733 29.2695 4.46733C28.7691 4.46733 28.3746 4.57836 28.0863 4.80043C27.8013 5.01918 27.604 5.26278 27.4947 5.53125L26.0977 5.21307C26.2634 4.74905 26.5053 4.37453 26.8235 4.08949C27.145 3.80114 27.5146 3.59233 27.9322 3.46307C28.3498 3.33049 28.7889 3.2642 29.2496 3.2642C29.5546 3.2642 29.8777 3.30066 30.2191 3.37358C30.5638 3.44318 30.8853 3.57244 31.1836 3.76136C31.4852 3.95028 31.7321 4.22041 31.9244 4.57173C32.1166 4.91974 32.2127 5.37216 32.2127 5.92898V11H30.761V9.95597H30.7013C30.6052 10.1482 30.4611 10.3371 30.2688 10.5227C30.0766 10.7083 29.8297 10.8625 29.5281 10.9851C29.2264 11.1077 28.8652 11.169 28.4442 11.169ZM28.7674 9.97585C29.1784 9.97585 29.5297 9.89465 29.8214 9.73224C30.1164 9.56984 30.3401 9.35772 30.4925 9.09588C30.6483 8.83073 30.7262 8.54735 30.7262 8.24574V7.26136C30.6732 7.31439 30.5704 7.36411 30.418 7.41051C30.2688 7.4536 30.0981 7.49171 29.9059 7.52486C29.7137 7.55469 29.5264 7.58286 29.3441 7.60938C29.1618 7.63258 29.0094 7.65246 28.8867 7.66903C28.5984 7.70549 28.3349 7.76681 28.0962 7.85298C27.8609 7.93916 27.672 8.06345 27.5295 8.22585C27.3903 8.38494 27.3207 8.59706 27.3207 8.86222C27.3207 9.23011 27.4566 9.50852 27.7283 9.69744C28.0001 9.88305 28.3465 9.97585 28.7674 9.97585ZM37.4093 11.1541C36.6702 11.1541 36.0338 10.9867 35.5002 10.652C34.9699 10.3139 34.5622 9.84825 34.2772 9.25497C33.9921 8.66169 33.8496 7.98224 33.8496 7.21662C33.8496 6.44105 33.9954 5.75663 34.2871 5.16335C34.5788 4.56676 34.9898 4.10109 35.5201 3.76633C36.0504 3.43158 36.6751 3.2642 37.3944 3.2642C37.9744 3.2642 38.4914 3.37192 38.9455 3.58736C39.3996 3.79948 39.7658 4.09777 40.0442 4.48224C40.3259 4.86671 40.4933 5.31581 40.5463 5.82955H39.0996C39.0201 5.47159 38.8378 5.16335 38.5527 4.90483C38.271 4.64631 37.8932 4.51705 37.4192 4.51705C37.0049 4.51705 36.642 4.62642 36.3304 4.84517C36.0222 5.06061 35.7819 5.36884 35.6096 5.76989C35.4372 6.16761 35.351 6.63826 35.351 7.18182C35.351 7.73864 35.4355 8.21922 35.6046 8.62358C35.7736 9.02794 36.0123 9.34115 36.3205 9.56321C36.632 9.78527 36.9983 9.89631 37.4192 9.89631C37.7009 9.89631 37.9561 9.84493 38.1848 9.74219C38.4168 9.63613 38.6107 9.48532 38.7665 9.28977C38.9256 9.09422 39.0366 8.8589 39.0996 8.58381H40.5463C40.4933 9.07765 40.3326 9.51847 40.0641 9.90625C39.7956 10.294 39.436 10.599 38.9853 10.821C38.5378 11.0431 38.0125 11.1541 37.4093 11.1541ZM43.5032 8.4098L43.4933 6.59517H43.7518L46.7944 3.36364H48.5742L45.104 7.04261H44.8704L43.5032 8.4098ZM42.136 11V0.818182H43.6225V11H42.136ZM46.9585 11L44.2241 7.37074L45.2482 6.33168L48.783 11H46.9585Z" fill="#CA3884"/>
</svg>
